<svg xmlns="http://www.w3.org/2000/svg" viewBox="0 0 256 256">
  <defs>
    <radialGradient id="pmBg" cx="50%" cy="40%" r="70%">
      <stop offset="0%" stop-color="#22D3EE"/>
      <stop offset="60%" stop-color="#0891B2"/>
      <stop offset="100%" stop-color="#164E63"/>
    </radialGradient>
    <radialGradient id="pmGlow" cx="50%" cy="50%" r="50%">
      <stop offset="0%" stop-color="#FDE68A" stop-opacity=".5"/>
      <stop offset="100%" stop-color="#FDE68A" stop-opacity="0"/>
    </radialGradient>
  </defs>
  <rect width="256" height="256" rx="56" fill="url(#pmBg)"/>
  <circle cx="128" cy="128" r="100" fill="url(#pmGlow)"/>
  <!-- bamboo slash -->
  <g opacity=".28" stroke="#ECFEFF" stroke-width="4" stroke-linecap="round">
    <line x1="30" y1="40" x2="70" y2="80"/>
    <line x1="186" y1="36" x2="226" y2="76"/>
  </g>
  <!-- panda -->
  <g transform="translate(128 138)">
    <ellipse cx="-52" cy="-54" rx="26" ry="28" fill="#0B061A"/>
    <ellipse cx="52"  cy="-54" rx="26" ry="28" fill="#0B061A"/>
    <circle cx="0" cy="8" r="64" fill="#FFFFFF"/>
    <ellipse cx="-22" cy="-8" rx="14" ry="20" fill="#0B061A"/>
    <ellipse cx="22"  cy="-8" rx="14" ry="20" fill="#0B061A"/>
    <circle cx="-22" cy="-11" r="4" fill="#FDE68A"/>
    <circle cx="22"  cy="-11" r="4" fill="#FDE68A"/>
    <ellipse cx="0" cy="18" rx="10" ry="7" fill="#0B061A"/>
    <path d="M -10 28 Q 0 40 10 28" stroke="#0B061A" stroke-width="4" stroke-linecap="round" fill="none"/>
  </g>
  <!-- crown / master marker -->
  <path d="M 92 50 L 108 70 L 128 44 L 148 70 L 164 50 L 158 82 L 98 82 Z" fill="#FDE68A" stroke="#0B061A" stroke-width="2"/>
</svg>
